<svg xmlns="http://www.w3.org/2000/svg" xmlns:xlink="http://www.w3.org/1999/xlink" version="1.1" x="0px" y="0px" viewBox="-255 347 100 100" style="enable-background:new -255 347 100 100;" xml:space="preserve"><path d="M-164.6,393.1c0.3,0,0.5-0.2,0.5-0.5v-11.4c0-0.3-0.2-0.5-0.5-0.5h-80.8c-0.3,0-0.5,0.2-0.5,0.5v11.4c0,0.3,0.2,0.5,0.5,0.5  c0.9,0,1.6,0.7,1.6,1.6s-0.7,1.6-1.6,1.6c-0.3,0-0.5,0.2-0.5,0.5v11.4c0,0.3,0.2,0.5,0.5,0.5h1.9v4c0,0.3,0.2,0.5,0.5,0.5h30.3  c0.3,0,0.5-0.2,0.5-0.5V411h3.2v1.8c0,0.3,0.2,0.5,0.5,0.5h41.7c0.3,0,0.5-0.2,0.5-0.5v-4h1.8c0.3,0,0.5-0.2,0.5-0.5v-11.4  c0-0.3-0.2-0.5-0.5-0.5c-0.9,0-1.6-0.7-1.6-1.6S-165.5,393.1-164.6,393.1z M-167.3,412.3h-2v-2.1c0-0.3-0.2-0.5-0.5-0.5  s-0.5,0.2-0.5,0.5v2.1h-2v-2.1c0-0.3-0.2-0.5-0.5-0.5s-0.5,0.2-0.5,0.5v2.1h-2v-2.1c0-0.3-0.2-0.5-0.5-0.5s-0.5,0.2-0.5,0.5v2.1h-2  v-2.1c0-0.3-0.2-0.5-0.5-0.5s-0.5,0.2-0.5,0.5v2.1h-2v-2.1c0-0.3-0.2-0.5-0.5-0.5s-0.5,0.2-0.5,0.5v2.1h-2v-2.1  c0-0.3-0.2-0.5-0.5-0.5s-0.5,0.2-0.5,0.5v2.1h-2v-2.1c0-0.3-0.2-0.5-0.5-0.5s-0.5,0.2-0.5,0.5v2.1h-2v-2.1c0-0.3-0.2-0.5-0.5-0.5  s-0.5,0.2-0.5,0.5v2.1h-2v-2.1c0-0.3-0.2-0.5-0.5-0.5s-0.5,0.2-0.5,0.5v2.1h-2v-2.1c0-0.3-0.2-0.5-0.5-0.5s-0.5,0.2-0.5,0.5v2.1h-2  v-2.1c0-0.3-0.2-0.5-0.5-0.5s-0.5,0.2-0.5,0.5v2.1h-2v-2.1c0-0.3-0.2-0.5-0.5-0.5s-0.5,0.2-0.5,0.5v2.1h-2v-2.1  c0-0.3-0.2-0.5-0.5-0.5s-0.5,0.2-0.5,0.5v2.1h-1.7v-1.8c0-0.3-0.2-0.5-0.5-0.5h-4.2c-0.3,0-0.5,0.2-0.5,0.5v1.8h-3.2v-2.1  c0-0.3-0.2-0.5-0.5-0.5s-0.5,0.2-0.5,0.5v2.1h-2v-2.1c0-0.3-0.2-0.5-0.5-0.5s-0.5,0.2-0.5,0.5v2.1h-2v-2.1c0-0.3-0.2-0.5-0.5-0.5  s-0.5,0.2-0.5,0.5v2.1h-2v-2.1c0-0.3-0.2-0.5-0.5-0.5s-0.5,0.2-0.5,0.5v2.1h-2v-2.1c0-0.3-0.2-0.5-0.5-0.5s-0.5,0.2-0.5,0.5v2.1h-2  v-2.1c0-0.3-0.2-0.5-0.5-0.5s-0.5,0.2-0.5,0.5v2.1h-2v-2.1c0-0.3-0.2-0.5-0.5-0.5s-0.5,0.2-0.5,0.5v2.1h-2v-2.1  c0-0.3-0.2-0.5-0.5-0.5s-0.5,0.2-0.5,0.5v2.1h-2v-2.1c0-0.3-0.2-0.5-0.5-0.5s-0.5,0.2-0.5,0.5v2.1h-1.2v-3.5h75.2V412.3z   M-165.1,397.3v10.4h-1.8H-243h-1.9v-10.4c1.2-0.2,2.1-1.3,2.1-2.6s-0.9-2.3-2.1-2.6v-10.4h79.8v10.4c-1.2,0.2-2.1,1.3-2.1,2.6  S-166.3,397.1-165.1,397.3z"></path><path d="M-230.8,386.1h-8c-0.3,0-0.5,0.2-0.5,0.5V403c0,0.3,0.2,0.5,0.5,0.5h8c0.3,0,0.5-0.2,0.5-0.5v-16.4  C-230.3,386.3-230.5,386.1-230.8,386.1z M-231.3,402.5h-7v-15.4h7V402.5z"></path><path d="M-219.8,386.1h-8c-0.3,0-0.5,0.2-0.5,0.5V403c0,0.3,0.2,0.5,0.5,0.5h8c0.3,0,0.5-0.2,0.5-0.5v-16.4  C-219.3,386.3-219.5,386.1-219.8,386.1z M-220.3,402.5h-7v-15.4h7V402.5z"></path><path d="M-208.8,386.1h-8c-0.3,0-0.5,0.2-0.5,0.5V403c0,0.3,0.2,0.5,0.5,0.5h8c0.3,0,0.5-0.2,0.5-0.5v-16.4  C-208.3,386.3-208.5,386.1-208.8,386.1z M-209.3,402.5h-7v-15.4h7V402.5z"></path><path d="M-197.8,386.1h-8c-0.3,0-0.5,0.2-0.5,0.5V403c0,0.3,0.2,0.5,0.5,0.5h8c0.3,0,0.5-0.2,0.5-0.5v-16.4  C-197.3,386.3-197.5,386.1-197.8,386.1z M-198.3,402.5h-7v-15.4h7V402.5z"></path><path d="M-186.8,386.1h-8c-0.3,0-0.5,0.2-0.5,0.5V403c0,0.3,0.2,0.5,0.5,0.5h8c0.3,0,0.5-0.2,0.5-0.5v-16.4  C-186.3,386.3-186.5,386.1-186.8,386.1z M-187.3,402.5h-7v-15.4h7V402.5z"></path><path d="M-175.8,386.1h-8c-0.3,0-0.5,0.2-0.5,0.5V403c0,0.3,0.2,0.5,0.5,0.5h8c0.3,0,0.5-0.2,0.5-0.5v-16.4  C-175.3,386.3-175.5,386.1-175.8,386.1z M-176.3,402.5h-7v-15.4h7V402.5z"></path></svg>