<svg xmlns="http://www.w3.org/2000/svg" xmlns:xlink="http://www.w3.org/1999/xlink" version="1.1" x="0px" y="0px" viewBox="0 0 100 100" style="enable-background:new 0 0 100 100;" xml:space="preserve"><path d="M25,40.1v13.6c0,8.4,4.3,16.3,11.3,20.9v13.1c0,1.3,1,2.3,2.3,2.3c1.3,0,2.3-1,2.3-2.3V74.1c0-0.1,0-0.3,0-0.4  c0.2-0.9-0.2-1.9-1.1-2.3c-5.7-3.3-9.5-9.2-10.1-15.8c0.7,0.2,1.4,0.4,2.2,0.4c1.7,0,3.3-0.7,4.5-1.7c1.2,1.1,2.8,1.7,4.5,1.7  c1.7,0,3.3-0.7,4.5-1.7c1.2,1.1,2.8,1.7,4.5,1.7c0.2,0,0.4,0,0.6,0c-1.8,2.2-2.9,4.9-2.9,8c0,1.3,1,2.3,2.3,2.3c1.3,0,2.3-1,2.3-2.3  c0-4.4,3.6-7.9,7.9-7.9h7.9c0.6,0,1.2-0.2,1.6-0.7l2.3-2.3c0,0,0,0,0,0c2.3-2.3,5.8-2.8,8.5-1.4L64.2,68c-1.3,1.3-2.7,2.4-4.2,3.4  c-0.6,0.4-1,1.1-1,1.9l0,14.4c0,1.3,1,2.3,2.3,2.3c1.3,0,2.3-1,2.3-2.3V74.5c1.4-1,2.7-2.1,3.9-3.3l18.1-18.1c0.9-0.9,0.9-2.3,0-3.2  c-4.6-4.6-12.2-4.6-16.8,0c0,0,0,0,0,0l-1.6,1.6h-1.3V15.2c0-3.8-3.1-6.8-6.8-6.8s-6.8,3.1-6.8,6.8v11.7c-0.7-0.3-1.5-0.4-2.3-0.4  c-2.4,0-4.5,1.3-5.7,3.2c-1-0.6-2.1-0.9-3.3-0.9c-3.1,0-5.8,2.1-6.6,5c-0.8-0.3-1.6-0.5-2.5-0.5C28.1,33.3,25,36.4,25,40.1z   M60.1,51.4c-1.4,0-2.8,0.3-4.1,0.7c0.4-0.9,0.7-1.9,0.7-3v-34c0-1.3,1-2.3,2.3-2.3s2.3,1,2.3,2.3v36.3H60.1z M47.7,49.2V33.3  c0-1.2,1-2.3,2.3-2.3c1.3,0,2.3,1,2.3,2.3v15.9c0,1.2-1,2.3-2.3,2.3C48.7,51.4,47.7,50.4,47.7,49.2z M38.6,49.2V35.6  c0-1.3,1-2.3,2.3-2.3c1.3,0,2.3,1,2.3,2.3v13.6c0,1.2-1,2.3-2.3,2.3C39.6,51.4,38.6,50.4,38.6,49.2z M29.5,49.2v-9.1  c0-1.2,1-2.3,2.3-2.3s2.3,1,2.3,2.3v9.1c0,1.2-1,2.3-2.3,2.3S29.5,50.4,29.5,49.2z"></path></svg>